<svg xmlns="http://www.w3.org/2000/svg" viewBox="0 0 28 28" fill="none">
  <!-- 圓形 badge（深海藍） -->
  <circle cx="14" cy="14" r="12.5" stroke="#1B3B4B" stroke-width="1.8"/>
  <!-- 企鵝身體（深海藍燕尾服） -->
  <ellipse cx="14" cy="15.5" rx="6.2" ry="8" fill="#1B3B4B"/>
  <!-- 白色肚（純淨白） -->
  <ellipse cx="14" cy="16.5" rx="3.6" ry="5.6" fill="#FCFBF8"/>
  <!-- 企鵝頭 -->
  <circle cx="14" cy="8.2" r="3.8" fill="#1B3B4B"/>
  <!-- 白色臉 -->
  <ellipse cx="14" cy="9" rx="2.1" ry="1.8" fill="#FCFBF8"/>
  <!-- 眼睛 -->
  <circle cx="12.7" cy="8" r="0.5" fill="#1B3B4B"/>
  <circle cx="15.3" cy="8" r="0.5" fill="#1B3B4B"/>
  <!-- 喙（珊瑚橘） -->
  <path d="M12.9 9.8 L15.1 9.8 L14 10.9 Z" fill="#E8825A"/>
  <!-- 蛇鷲冠羽（秘書羽毛筆，青綠） -->
  <path d="M14 4.6 C15.4 3.4 17.2 3.2 18.4 3.6 C17.6 4.6 16.2 5.2 14.8 5.2 Z" fill="#2E9E8E"/>
  <!-- 蝴蝶結 bow tie（珊瑚橘管家） -->
  <path d="M11.2 12.6 L14 13.9 L16.8 12.6 L16.8 14.8 L14 13.9 L11.2 14.8 Z" fill="#E8825A"/>
  <!-- 羽毛筆（青綠，企鵝右側） -->
  <g stroke="#2E9E8E" stroke-width="1.1" stroke-linecap="round">
    <path d="M20.2 7.2 C21.6 9.4 21.6 11.8 20.4 13.6"/>
    <path d="M20.2 7.2 C21.2 7.8 21.8 8.6 22 9.6"/>
    <path d="M20.4 13.6 L19.6 15.4"/>
  </g>
</svg>
